<?xml version="1.0" encoding="utf-8"?>
<!-- Generator: Adobe Illustrator 16.0.0, SVG Export Plug-In . SVG Version: 6.00 Build 0)  -->
<!DOCTYPE svg PUBLIC "-//W3C//DTD SVG 1.1//EN" "http://www.w3.org/Graphics/SVG/1.1/DTD/svg11.dtd">
<svg version="1.1" xmlns="http://www.w3.org/2000/svg" xmlns:xlink="http://www.w3.org/1999/xlink" x="0px" y="0px" width="500px"
	 height="500px" viewBox="0 0 500 500" enable-background="new 0 0 500 500" xml:space="preserve">
<g id="Layer_1">
	<polyline fill="none" stroke="#000000" stroke-width="5" stroke-miterlimit="10" points="372.953,37.038 495.908,250 372.953,460 
		127.045,462.963 4.092,250 106.197,73.149 352.104,73.149 454.211,250 352.104,426.852 147.895,426.852 45.79,250 121.032,119.677 
		325.242,119.677 400.485,250.001 325.242,380.324 174.758,380.324 99.516,250.001 155.112,153.706 305.597,153.706 
		361.193,250.001 305.597,346.297 194.404,346.297 138.808,250.001 171.149,193.984 282.342,193.984 314.685,250.002 
		282.342,306.02 217.658,306.02 188.444,250 250,250 	"/>
</g>
<g id="Layer_2">
	<polyline fill="none" stroke="#000000" stroke-width="5" stroke-miterlimit="10" points="372.953,37.038 495.908,250 372.953,460 
		127.045,462.963 4.092,250 106.197,73.149 352.104,73.149 454.211,250 352.104,426.852 147.895,426.852 45.79,250 121.032,119.677 
		325.242,119.677 400.485,250.001 325.242,380.324 174.758,380.324 99.516,250.001 155.112,153.706 305.597,153.706 
		361.193,250.001 305.597,346.297 194.404,346.297 138.808,250.001 171.149,193.984 282.342,193.984 314.685,250.002 
		282.342,306.02 217.658,306.02 188.444,250 250,250 	"/>
</g>
</svg>
